<svg width="332" height="334" viewBox="0 0 332 334" fill="none" xmlns="http://www.w3.org/2000/svg">
<path fill-rule="evenodd" clip-rule="evenodd" d="M2.93088 2.91143C11.4079 -5.55857 17.8309 7.15543 29.8149 7.15543C40.1289 7.15543 42.1439 1.15543 52.4579 1.15543C62.6459 1.15543 64.9129 7.15543 75.1009 7.15543C85.2889 7.15543 87.5549 1.15543 97.7429 1.15543C107.931 1.15543 110.198 7.15543 120.386 7.15543C130.574 7.15543 132.841 1.15543 143.029 1.15543C153.217 1.15543 155.484 7.15543 165.672 7.15543C175.86 7.15543 178.127 1.15543 188.315 1.15543C198.503 1.15543 200.77 7.15543 210.958 7.15543C221.146 7.15543 223.413 1.15543 233.601 1.15543C243.789 1.15543 246.056 7.15543 256.244 7.15543C266.432 7.15543 268.698 1.15543 278.886 1.15543C289.2 1.15543 291.215 7.15543 301.529 7.15543C313.517 7.15543 319.978 -5.57657 328.428 2.92643C336.916 11.4684 324.172 17.8994 324.172 29.9414C324.172 40.3184 330.172 42.3494 330.172 52.7264C330.172 62.9824 324.172 65.2564 324.172 75.5124C324.172 85.7684 330.172 88.0424 330.172 98.2984C330.172 108.554 324.172 110.828 324.172 121.084C324.172 131.34 330.172 133.613 330.172 143.869C330.172 154.125 324.172 156.399 324.172 166.655C324.172 176.911 330.172 179.185 330.172 189.441C330.172 199.697 324.172 201.971 324.172 212.227C324.172 222.483 330.172 224.756 330.172 235.012C330.172 245.268 324.172 247.542 324.172 257.798C324.172 268.054 330.172 270.328 330.172 280.584C330.172 290.961 324.172 292.993 324.172 303.37C324.172 315.412 336.916 321.842 328.428 330.384C319.978 338.887 313.517 326.155 301.529 326.155C291.215 326.155 289.2 332.155 278.886 332.155C268.698 332.155 266.432 326.155 256.244 326.155C246.056 326.155 243.789 332.155 233.601 332.155C223.413 332.155 221.146 326.155 210.958 326.155C200.77 326.155 198.503 332.155 188.315 332.155C178.127 332.155 175.86 326.155 165.672 326.155C155.484 326.155 153.217 332.155 143.029 332.155C132.841 332.155 130.574 326.155 120.386 326.155C110.198 326.155 107.931 332.155 97.7429 332.155C87.5549 332.155 85.2889 326.155 75.1009 326.155C64.9129 326.155 62.6459 332.155 52.4579 332.155C42.1439 332.155 40.1289 326.155 29.8149 326.155C17.8269 326.155 11.3659 338.887 2.91588 330.384C-5.57212 321.842 7.17188 315.412 7.17188 303.37C7.17188 292.993 1.17188 290.961 1.17188 280.584C1.17188 270.329 7.17188 268.053 7.17188 257.798C7.17188 247.543 1.17188 245.267 1.17188 235.012C1.17188 224.757 7.17188 222.482 7.17188 212.227C7.17188 201.972 1.17188 199.696 1.17188 189.441C1.17188 179.186 7.17188 176.91 7.17188 166.655C7.17188 156.4 1.17188 154.124 1.17188 143.869C1.17188 133.614 7.17188 131.339 7.17188 121.084C7.17188 110.829 1.17188 108.553 1.17188 98.2984C1.17188 88.0434 7.17188 85.7674 7.17188 75.5124C7.17188 65.2574 1.17188 62.9814 1.17188 52.7264C1.17188 42.3494 7.17188 40.3184 7.17188 29.9414C7.17188 17.8904 -5.56412 11.4594 2.93088 2.91143Z" fill="white"/>
</svg>
