<svg preserveAspectRatio="none" width="1440" height="120" viewBox="0 0 1440 120" fill="none" xmlns="http://www.w3.org/2000/svg">
<path fill-rule="evenodd" clip-rule="evenodd" d="M 0.000 8.000 C 28.235 4.800, 56.471 4.800, 84.706 8.000 C 112.941 11.200, 141.176 11.200, 169.412 8.000 C 197.647 4.800, 225.882 4.800, 254.118 8.000 C 282.353 11.200, 310.588 11.200, 338.824 8.000 C 367.059 4.800, 395.294 4.800, 423.529 8.000 C 451.765 11.200, 480.000 11.200, 508.235 8.000 C 536.471 4.800, 564.706 4.800, 592.941 8.000 C 621.176 11.200, 649.412 11.200, 677.647 8.000 C 705.882 4.800, 734.118 4.800, 762.353 8.000 C 790.588 11.200, 818.824 11.200, 847.059 8.000 C 875.294 4.800, 903.529 4.800, 931.765 8.000 C 960.000 11.200, 988.235 11.200, 1016.471 8.000 C 1044.706 4.800, 1072.941 4.800, 1101.176 8.000 C 1129.412 11.200, 1157.647 11.200, 1185.882 8.000 C 1214.118 4.800, 1242.353 4.800, 1270.588 8.000 C 1298.824 11.200, 1327.059 11.200, 1355.294 8.000 C 1383.529 4.800, 1411.765 4.800, 1440.000 8.000 L 1440.000 120.000 L 0.000 120.000 L 0.000 8.000 Z" fill="white"/>
</svg>