<svg preserveAspectRatio="none" width="390" height="60" viewBox="0 0 390 60" fill="none" xmlns="http://www.w3.org/2000/svg">
<path fill-rule="evenodd" clip-rule="evenodd" d="M 0.000 6.000 C 14.444 3.600, 28.889 3.600, 43.333 6.000 C 57.778 8.400, 72.222 8.400, 86.667 6.000 C 101.111 3.600, 115.556 3.600, 130.000 6.000 C 144.444 8.400, 158.889 8.400, 173.333 6.000 C 187.778 3.600, 202.222 3.600, 216.667 6.000 C 231.111 8.400, 245.556 8.400, 260.000 6.000 C 274.444 3.600, 288.889 3.600, 303.333 6.000 C 317.778 8.400, 332.222 8.400, 346.667 6.000 C 361.111 3.600, 375.556 3.600, 390.000 6.000 L 390.000 60.000 L 0.000 60.000 L 0.000 6.000 Z" fill="white"/>
</svg>