<svg preserveAspectRatio="none" width="1440" height="120" viewBox="0 0 1440 120" fill="none" xmlns="http://www.w3.org/2000/svg">
<path fill-rule="evenodd" clip-rule="evenodd" d="M 0.000 0.000 L 1440.000 0.000 L 1440.000 112.000 C 1411.765 108.800, 1383.529 108.800, 1355.294 112.000 C 1327.059 115.200, 1298.824 115.200, 1270.588 112.000 C 1242.353 108.800, 1214.118 108.800, 1185.882 112.000 C 1157.647 115.200, 1129.412 115.200, 1101.176 112.000 C 1072.941 108.800, 1044.706 108.800, 1016.471 112.000 C 988.235 115.200, 960.000 115.200, 931.765 112.000 C 903.529 108.800, 875.294 108.800, 847.059 112.000 C 818.824 115.200, 790.588 115.200, 762.353 112.000 C 734.118 108.800, 705.882 108.800, 677.647 112.000 C 649.412 115.200, 621.176 115.200, 592.941 112.000 C 564.706 108.800, 536.471 108.800, 508.235 112.000 C 480.000 115.200, 451.765 115.200, 423.529 112.000 C 395.294 108.800, 367.059 108.800, 338.824 112.000 C 310.588 115.200, 282.353 115.200, 254.118 112.000 C 225.882 108.800, 197.647 108.800, 169.412 112.000 C 141.176 115.200, 112.941 115.200, 84.706 112.000 C 56.471 108.800, 28.235 108.800, 0.000 112.000 L 0.000 0.000 Z" fill="white"/>
</svg>