<svg width="1441" height="162" viewBox="0 0 1441 162" fill="none" xmlns="http://www.w3.org/2000/svg" preserveAspectRatio="none">
<path fill-rule="evenodd" clip-rule="evenodd" d="M0.118826 0C0.448835 0 10.8644 0 22.793 0C33.047 0 35.0456 0 45.2997 0C55.4277 0 57.6783 0 67.8063 0C77.9343 0 80.185 0 90.313 0C100.441 0 102.692 0 112.82 0C122.948 0 125.198 0 135.326 0C145.454 0 147.705 0 157.833 0C167.961 0 170.212 0 180.34 0C190.468 0 192.718 0 202.846 0C212.974 0 215.225 0 225.353 0C235.481 0 237.732 0 247.86 0C257.988 0 260.238 0 270.366 0C280.494 0 282.745 0 292.873 0C303.001 0 305.252 0 315.38 0C325.508 0 327.759 0 337.887 0C348.014 0 350.265 0 360.393 0C370.521 0 372.772 0 382.9 0C393.028 0 395.279 0 405.407 0C415.535 0 417.785 0 427.913 0C438.041 0 440.292 0 450.42 0C460.548 0 462.799 0 472.927 0C483.055 0 485.305 0 495.433 0C505.561 0 507.812 0 517.94 0C528.068 0 530.319 0 540.447 0C550.575 0 552.825 0 562.953 0C573.081 0 575.332 0 585.46 0C595.588 0 597.839 0 607.967 0C618.095 0 620.345 0 630.473 0C640.601 0 642.852 0 652.98 0C663.108 0 665.359 0 675.487 0C685.615 0 687.865 0 697.993 0C708.121 0 710.372 0 720.5 0C730.628 0 732.879 0 743.007 0C753.135 0 755.385 0 765.513 0C775.641 0 777.892 0 788.02 0C798.148 0 800.399 0 810.527 0C820.655 0 822.905 0 833.033 0C843.161 0 845.412 0 855.54 0C865.668 0 867.919 0 878.047 0C888.175 0 890.425 0 900.553 0C910.681 0 912.932 0 923.06 0C933.188 0 935.439 0 945.567 0C955.695 0 957.945 0 968.073 0C978.201 0 980.452 0 990.58 0C1000.71 0 1002.96 0 1013.09 0C1023.21 0 1025.47 0 1035.59 0C1045.72 0 1047.97 0 1058.1 0C1068.23 0 1070.48 0 1080.61 0C1090.73 0 1092.99 0 1103.11 0C1113.24 0 1115.49 0 1125.62 0C1135.75 0 1138 0 1148.13 0C1158.26 0 1160.51 0 1170.63 0C1180.76 0 1183.01 0 1193.14 0C1203.27 0 1205.52 0 1215.65 0C1225.78 0 1228.03 0 1238.15 0C1248.28 0 1250.53 0 1260.66 0C1270.79 0 1273.04 0 1283.17 0C1293.3 0 1295.55 0 1305.67 0C1315.8 0 1318.05 0 1328.18 0C1338.31 0 1340.56 0 1350.69 0C1360.82 0 1363.07 0 1373.19 0C1383.32 0 1385.57 0 1395.7 0C1405.96 0 1407.95 0 1418.21 0C1430.18 0 1440.56 0 1440.88 0C1441.22 0 1440.71 17.7174 1440.71 37.4057C1440.71 54.5012 1440.95 57.9044 1440.95 74.9999C1440.95 92.0953 1440.71 95.4986 1440.71 112.594C1440.71 132.282 1441.22 142.427 1440.88 156.719C1440.56 170.468 1430.18 150.188 1418.21 150.188C1407.95 150.188 1405.96 159.686 1395.7 159.686C1385.57 159.686 1383.32 150.188 1373.19 150.188C1363.07 150.188 1360.82 159.686 1350.69 159.686C1340.56 159.686 1338.31 150.188 1328.18 150.188C1318.05 150.188 1315.8 159.686 1305.67 159.686C1295.55 159.686 1293.3 150.188 1283.17 150.188C1273.04 150.188 1270.79 159.686 1260.66 159.686C1250.53 159.686 1248.28 150.188 1238.15 150.188C1228.03 150.188 1225.78 159.686 1215.65 159.686C1205.52 159.686 1203.27 150.188 1193.14 150.188C1183.01 150.188 1180.76 159.686 1170.63 159.686C1160.51 159.686 1158.26 150.188 1148.13 150.188C1138 150.188 1135.75 159.686 1125.62 159.686C1115.49 159.686 1113.24 150.188 1103.11 150.188C1092.99 150.188 1090.73 159.686 1080.61 159.686C1070.48 159.686 1068.23 150.188 1058.1 150.188C1047.97 150.188 1045.72 159.686 1035.59 159.686C1025.47 159.686 1023.21 150.188 1013.09 150.188C1002.96 150.188 1000.71 159.686 990.58 159.686C980.452 159.686 978.201 150.188 968.073 150.188C957.945 150.188 955.695 159.686 945.567 159.686C935.439 159.686 933.188 150.188 923.06 150.188C912.932 150.188 910.681 159.686 900.553 159.686C890.425 159.686 888.175 150.188 878.047 150.188C867.919 150.188 865.668 159.686 855.54 159.686C845.412 159.686 843.161 150.188 833.033 150.188C822.905 150.188 820.655 159.686 810.527 159.686C800.399 159.686 798.148 150.188 788.02 150.188C777.892 150.188 775.641 159.686 765.513 159.686C755.385 159.686 753.135 150.188 743.007 150.188C732.879 150.188 730.628 159.686 720.5 159.686C710.372 159.686 708.121 150.188 697.993 150.188C687.865 150.188 685.615 159.686 675.487 159.686C665.359 159.686 663.108 150.188 652.98 150.188C642.852 150.188 640.601 159.686 630.473 159.686C620.345 159.686 618.095 150.188 607.967 150.188C597.839 150.188 595.588 159.686 585.46 159.686C575.332 159.686 573.081 150.188 562.953 150.188C552.825 150.188 550.575 159.686 540.447 159.686C530.319 159.686 528.068 150.188 517.94 150.188C507.812 150.188 505.561 159.686 495.433 159.686C485.305 159.686 483.055 150.188 472.927 150.188C462.799 150.188 460.548 159.686 450.42 159.686C440.292 159.686 438.041 150.188 427.913 150.188C417.785 150.188 415.535 159.686 405.407 159.686C395.279 159.686 393.028 150.188 382.9 150.188C372.772 150.188 370.521 159.686 360.393 159.686C350.265 159.686 348.014 150.188 337.887 150.188C327.759 150.188 325.508 159.686 315.38 159.686C305.252 159.686 303.001 150.188 292.873 150.188C282.745 150.188 280.494 159.686 270.366 159.686C260.238 159.686 257.988 150.188 247.86 150.188C237.732 150.188 235.481 159.686 225.353 159.686C215.225 159.686 212.974 150.188 202.846 150.188C192.718 150.188 190.468 159.686 180.34 159.686C170.212 159.686 167.961 150.188 157.833 150.188C147.705 150.188 145.454 159.686 135.326 159.686C125.198 159.686 122.948 150.188 112.82 150.188C102.692 150.188 100.441 159.686 90.313 159.686C80.185 159.686 77.9343 150.188 67.8063 150.188C57.6783 150.188 55.4277 159.686 45.2997 159.686C35.0416 159.686 33.051 150.188 22.793 150.188C10.8244 150.188 0.438537 170.468 0.115092 156.719C-0.221127 142.427 0.286307 132.282 0.286307 112.594C0.286307 95.4986 0.0504741 92.0953 0.0504741 74.9999C0.0504741 57.8981 0.286307 54.5075 0.286307 37.4057C0.286307 17.6462 -0.218611 0 0.118826 0Z" fill="white"/>
</svg>
