<svg width="846" height="410" viewBox="0 0 846 410" fill="none" xmlns="http://www.w3.org/2000/svg">
<foreignObject x="-9" y="-9" width="864" height="428"><div xmlns="http://www.w3.org/1999/xhtml" style="backdrop-filter:blur(4.5px);clip-path:url(#bgblur_0_188_44_clip_path);height:100%;width:100%"></div></foreignObject><path data-figma-bg-blur-radius="9" fill-rule="evenodd" clip-rule="evenodd" d="M1.90109 3.06989C7.3678 -5.98319 11.4898 7.89839 19.1853 7.89839C25.765 7.89839 27.0273 1.10179 33.6069 1.10179C40.0972 1.10179 41.5389 7.89839 48.0291 7.89839C54.5194 7.89839 55.9605 1.10179 62.4508 1.10179C68.941 1.10179 70.3827 7.89839 76.873 7.89839C83.3632 7.89839 84.8049 1.10179 91.2952 1.10179C97.7854 1.10179 99.2271 7.89839 105.717 7.89839C112.208 7.89839 113.649 1.10179 120.139 1.10179C126.629 1.10179 128.071 7.89839 134.561 7.89839C141.051 7.89839 142.493 1.10179 148.983 1.10179C155.473 1.10179 156.915 7.89839 163.405 7.89839C169.895 7.89839 171.336 1.10179 177.827 1.10179C184.317 1.10179 185.759 7.89839 192.249 7.89839C198.739 7.89839 200.18 1.10179 206.67 1.10179C213.161 1.10179 214.602 7.89839 221.093 7.89839C227.583 7.89839 229.024 1.10179 235.514 1.10179C242.005 1.10179 243.446 7.89839 249.936 7.89839C256.427 7.89839 257.868 1.10179 264.359 1.10179C270.849 1.10179 272.291 7.89839 278.781 7.89839C285.271 7.89839 286.712 1.10179 293.203 1.10179C299.693 1.10179 301.134 7.89839 307.625 7.89839C314.115 7.89839 315.556 1.10179 322.046 1.10179C328.537 1.10179 329.978 7.89839 336.469 7.89839C342.959 7.89839 344.4 1.10179 350.89 1.10179C357.38 1.10179 358.822 7.89839 365.312 7.89839C371.803 7.89839 373.244 1.10179 379.734 1.10179C386.224 1.10179 387.666 7.89839 394.156 7.89839C400.646 7.89839 402.088 1.10179 408.578 1.10179C415.068 1.10179 416.51 7.89839 423 7.89839C429.49 7.89839 430.932 1.10179 437.422 1.10179C443.912 1.10179 445.354 7.89839 451.844 7.89839C458.335 7.89839 459.776 1.10179 466.266 1.10179C472.756 1.10179 474.198 7.89839 480.688 7.89839C487.178 7.89839 488.62 1.10179 495.11 1.10179C501.6 1.10179 503.042 7.89839 509.532 7.89839C516.022 7.89839 517.463 1.10179 523.954 1.10179C530.444 1.10179 531.886 7.89839 538.376 7.89839C544.866 7.89839 546.307 1.10179 552.798 1.10179C559.288 1.10179 560.729 7.89839 567.22 7.89839C573.71 7.89839 575.151 1.10179 581.641 1.10179C588.132 1.10179 589.573 7.89839 596.064 7.89839C602.554 7.89839 603.995 1.10179 610.486 1.10179C616.976 1.10179 618.418 7.89839 624.908 7.89839C631.398 7.89839 632.839 1.10179 639.33 1.10179C645.82 1.10179 647.262 7.89839 653.752 7.89839C660.242 7.89839 661.683 1.10179 668.173 1.10179C674.664 1.10179 676.105 7.89839 682.595 7.89839C689.085 7.89839 690.527 1.10179 697.017 1.10179C703.507 1.10179 704.949 7.89839 711.439 7.89839C717.93 7.89839 719.371 1.10179 725.861 1.10179C732.351 1.10179 733.793 7.89839 740.283 7.89839C746.773 7.89839 748.215 1.10179 754.705 1.10179C761.195 1.10179 762.637 7.89839 769.127 7.89839C775.617 7.89839 777.059 1.10179 783.549 1.10179C790.039 1.10179 791.481 7.89839 797.971 7.89839C804.462 7.89839 805.903 1.10179 812.393 1.10179C818.975 1.10179 820.233 7.89839 826.815 7.89839C834.529 7.89839 838.748 -6.07058 844.143 3.14562C849.62 12.5026 841.237 19.4458 841.237 32.5361C841.237 43.7699 845.303 45.94 845.303 57.1738C845.303 68.2629 841.237 70.7224 841.237 81.8115C841.237 92.9007 845.303 95.3601 845.303 106.449C845.303 117.538 841.237 119.998 841.237 131.087C841.237 142.176 845.303 144.635 845.303 155.725C845.303 166.814 841.237 169.273 841.237 180.362C841.237 191.451 845.303 193.911 845.303 205C845.303 216.089 841.237 218.549 841.237 229.638C841.237 240.727 845.303 243.186 845.303 254.275C845.303 265.365 841.237 267.824 841.237 278.913C841.237 290.002 845.303 292.462 845.303 303.551C845.303 314.64 841.237 317.099 841.237 328.189C841.237 339.278 845.303 341.737 845.303 352.826C845.303 364.06 841.237 366.23 841.237 377.464C841.237 390.554 849.62 397.497 844.143 406.854C838.748 416.071 834.529 402.102 826.815 402.102C820.233 402.102 818.975 408.898 812.393 408.898C805.903 408.898 804.462 402.102 797.971 402.102C791.481 402.102 790.039 408.898 783.549 408.898C777.059 408.898 775.617 402.102 769.127 402.102C762.637 402.102 761.195 408.898 754.705 408.898C748.215 408.898 746.773 402.102 740.283 402.102C733.793 402.102 732.351 408.898 725.861 408.898C719.371 408.898 717.93 402.102 711.439 402.102C704.949 402.102 703.507 408.898 697.017 408.898C690.527 408.898 689.085 402.102 682.595 402.102C676.105 402.102 674.664 408.898 668.173 408.898C661.683 408.898 660.242 402.102 653.752 402.102C647.262 402.102 645.82 408.898 639.33 408.898C632.839 408.898 631.398 402.102 624.908 402.102C618.418 402.102 616.976 408.898 610.486 408.898C603.995 408.898 602.554 402.102 596.064 402.102C589.573 402.102 588.132 408.898 581.641 408.898C575.151 408.898 573.71 402.102 567.22 402.102C560.729 402.102 559.288 408.898 552.798 408.898C546.307 408.898 544.866 402.102 538.376 402.102C531.886 402.102 530.444 408.898 523.954 408.898C517.463 408.898 516.022 402.102 509.532 402.102C503.042 402.102 501.6 408.898 495.11 408.898C488.62 408.898 487.178 402.102 480.688 402.102C474.198 402.102 472.756 408.898 466.266 408.898C459.776 408.898 458.335 402.102 451.844 402.102C445.354 402.102 443.912 408.898 437.422 408.898C430.932 408.898 429.49 402.102 423 402.102C416.51 402.102 415.068 408.898 408.578 408.898C402.088 408.898 400.646 402.102 394.156 402.102C387.666 402.102 386.224 408.898 379.734 408.898C373.244 408.898 371.803 402.102 365.312 402.102C358.822 402.102 357.38 408.898 350.89 408.898C344.4 408.898 342.959 402.102 336.469 402.102C329.978 402.102 328.537 408.898 322.046 408.898C315.556 408.898 314.115 402.102 307.625 402.102C301.134 402.102 299.693 408.898 293.203 408.898C286.712 408.898 285.271 402.102 278.781 402.102C272.291 402.102 270.849 408.898 264.359 408.898C257.868 408.898 256.427 402.102 249.936 402.102C243.446 402.102 242.005 408.898 235.514 408.898C229.024 408.898 227.583 402.102 221.093 402.102C214.602 402.102 213.161 408.898 206.67 408.898C200.18 408.898 198.739 402.102 192.249 402.102C185.759 402.102 184.317 408.898 177.827 408.898C171.336 408.898 169.895 402.102 163.405 402.102C156.915 402.102 155.473 408.898 148.983 408.898C142.493 408.898 141.051 402.102 134.561 402.102C128.071 402.102 126.629 408.898 120.139 408.898C113.649 408.898 112.208 402.102 105.717 402.102C99.2271 402.102 97.7854 408.898 91.2952 408.898C84.8049 408.898 83.3632 402.102 76.873 402.102C70.3827 402.102 68.941 408.898 62.4508 408.898C55.9605 408.898 54.5194 402.102 48.0291 402.102C41.5389 402.102 40.0972 408.898 33.6069 408.898C27.0249 408.898 25.7673 402.102 19.1853 402.102C11.4717 402.102 7.25162 416.071 1.85694 406.854C-3.62022 397.497 4.76311 390.554 4.76311 377.464C4.76311 366.23 0.696918 364.06 0.696918 352.826C0.696918 341.737 4.76311 339.278 4.76311 328.189C4.76311 317.099 0.696918 314.64 0.696918 303.551C0.696918 292.462 4.76311 290.002 4.76311 278.913C4.76311 267.824 0.696918 265.365 0.696918 254.275C0.696918 243.186 4.76311 240.727 4.76311 229.638C4.76311 218.549 0.696918 216.089 0.696918 205C0.696918 193.911 4.76311 191.451 4.76311 180.362C4.76311 169.273 0.696918 166.814 0.696918 155.725C0.696918 144.635 4.76311 142.176 4.76311 131.087C4.76311 119.998 0.696918 117.538 0.696918 106.449C0.696918 95.3601 4.76311 92.9007 4.76311 81.8115C4.76311 70.7224 0.696918 68.2629 0.696918 57.1738C0.696918 45.9361 4.76311 43.7738 4.76311 32.5361C4.76311 19.4109 -3.59059 12.4511 1.90109 3.06989Z" fill="white" fill-opacity="0.71"/>
<defs>
<clipPath id="bgblur_0_188_44_clip_path" transform="translate(9 9)"><path fill-rule="evenodd" clip-rule="evenodd" d="M1.90109 3.06989C7.3678 -5.98319 11.4898 7.89839 19.1853 7.89839C25.765 7.89839 27.0273 1.10179 33.6069 1.10179C40.0972 1.10179 41.5389 7.89839 48.0291 7.89839C54.5194 7.89839 55.9605 1.10179 62.4508 1.10179C68.941 1.10179 70.3827 7.89839 76.873 7.89839C83.3632 7.89839 84.8049 1.10179 91.2952 1.10179C97.7854 1.10179 99.2271 7.89839 105.717 7.89839C112.208 7.89839 113.649 1.10179 120.139 1.10179C126.629 1.10179 128.071 7.89839 134.561 7.89839C141.051 7.89839 142.493 1.10179 148.983 1.10179C155.473 1.10179 156.915 7.89839 163.405 7.89839C169.895 7.89839 171.336 1.10179 177.827 1.10179C184.317 1.10179 185.759 7.89839 192.249 7.89839C198.739 7.89839 200.18 1.10179 206.67 1.10179C213.161 1.10179 214.602 7.89839 221.093 7.89839C227.583 7.89839 229.024 1.10179 235.514 1.10179C242.005 1.10179 243.446 7.89839 249.936 7.89839C256.427 7.89839 257.868 1.10179 264.359 1.10179C270.849 1.10179 272.291 7.89839 278.781 7.89839C285.271 7.89839 286.712 1.10179 293.203 1.10179C299.693 1.10179 301.134 7.89839 307.625 7.89839C314.115 7.89839 315.556 1.10179 322.046 1.10179C328.537 1.10179 329.978 7.89839 336.469 7.89839C342.959 7.89839 344.4 1.10179 350.89 1.10179C357.38 1.10179 358.822 7.89839 365.312 7.89839C371.803 7.89839 373.244 1.10179 379.734 1.10179C386.224 1.10179 387.666 7.89839 394.156 7.89839C400.646 7.89839 402.088 1.10179 408.578 1.10179C415.068 1.10179 416.51 7.89839 423 7.89839C429.49 7.89839 430.932 1.10179 437.422 1.10179C443.912 1.10179 445.354 7.89839 451.844 7.89839C458.335 7.89839 459.776 1.10179 466.266 1.10179C472.756 1.10179 474.198 7.89839 480.688 7.89839C487.178 7.89839 488.62 1.10179 495.11 1.10179C501.6 1.10179 503.042 7.89839 509.532 7.89839C516.022 7.89839 517.463 1.10179 523.954 1.10179C530.444 1.10179 531.886 7.89839 538.376 7.89839C544.866 7.89839 546.307 1.10179 552.798 1.10179C559.288 1.10179 560.729 7.89839 567.22 7.89839C573.71 7.89839 575.151 1.10179 581.641 1.10179C588.132 1.10179 589.573 7.89839 596.064 7.89839C602.554 7.89839 603.995 1.10179 610.486 1.10179C616.976 1.10179 618.418 7.89839 624.908 7.89839C631.398 7.89839 632.839 1.10179 639.33 1.10179C645.82 1.10179 647.262 7.89839 653.752 7.89839C660.242 7.89839 661.683 1.10179 668.173 1.10179C674.664 1.10179 676.105 7.89839 682.595 7.89839C689.085 7.89839 690.527 1.10179 697.017 1.10179C703.507 1.10179 704.949 7.89839 711.439 7.89839C717.93 7.89839 719.371 1.10179 725.861 1.10179C732.351 1.10179 733.793 7.89839 740.283 7.89839C746.773 7.89839 748.215 1.10179 754.705 1.10179C761.195 1.10179 762.637 7.89839 769.127 7.89839C775.617 7.89839 777.059 1.10179 783.549 1.10179C790.039 1.10179 791.481 7.89839 797.971 7.89839C804.462 7.89839 805.903 1.10179 812.393 1.10179C818.975 1.10179 820.233 7.89839 826.815 7.89839C834.529 7.89839 838.748 -6.07058 844.143 3.14562C849.62 12.5026 841.237 19.4458 841.237 32.5361C841.237 43.7699 845.303 45.94 845.303 57.1738C845.303 68.2629 841.237 70.7224 841.237 81.8115C841.237 92.9007 845.303 95.3601 845.303 106.449C845.303 117.538 841.237 119.998 841.237 131.087C841.237 142.176 845.303 144.635 845.303 155.725C845.303 166.814 841.237 169.273 841.237 180.362C841.237 191.451 845.303 193.911 845.303 205C845.303 216.089 841.237 218.549 841.237 229.638C841.237 240.727 845.303 243.186 845.303 254.275C845.303 265.365 841.237 267.824 841.237 278.913C841.237 290.002 845.303 292.462 845.303 303.551C845.303 314.64 841.237 317.099 841.237 328.189C841.237 339.278 845.303 341.737 845.303 352.826C845.303 364.06 841.237 366.23 841.237 377.464C841.237 390.554 849.62 397.497 844.143 406.854C838.748 416.071 834.529 402.102 826.815 402.102C820.233 402.102 818.975 408.898 812.393 408.898C805.903 408.898 804.462 402.102 797.971 402.102C791.481 402.102 790.039 408.898 783.549 408.898C777.059 408.898 775.617 402.102 769.127 402.102C762.637 402.102 761.195 408.898 754.705 408.898C748.215 408.898 746.773 402.102 740.283 402.102C733.793 402.102 732.351 408.898 725.861 408.898C719.371 408.898 717.93 402.102 711.439 402.102C704.949 402.102 703.507 408.898 697.017 408.898C690.527 408.898 689.085 402.102 682.595 402.102C676.105 402.102 674.664 408.898 668.173 408.898C661.683 408.898 660.242 402.102 653.752 402.102C647.262 402.102 645.82 408.898 639.33 408.898C632.839 408.898 631.398 402.102 624.908 402.102C618.418 402.102 616.976 408.898 610.486 408.898C603.995 408.898 602.554 402.102 596.064 402.102C589.573 402.102 588.132 408.898 581.641 408.898C575.151 408.898 573.71 402.102 567.22 402.102C560.729 402.102 559.288 408.898 552.798 408.898C546.307 408.898 544.866 402.102 538.376 402.102C531.886 402.102 530.444 408.898 523.954 408.898C517.463 408.898 516.022 402.102 509.532 402.102C503.042 402.102 501.6 408.898 495.11 408.898C488.62 408.898 487.178 402.102 480.688 402.102C474.198 402.102 472.756 408.898 466.266 408.898C459.776 408.898 458.335 402.102 451.844 402.102C445.354 402.102 443.912 408.898 437.422 408.898C430.932 408.898 429.49 402.102 423 402.102C416.51 402.102 415.068 408.898 408.578 408.898C402.088 408.898 400.646 402.102 394.156 402.102C387.666 402.102 386.224 408.898 379.734 408.898C373.244 408.898 371.803 402.102 365.312 402.102C358.822 402.102 357.38 408.898 350.89 408.898C344.4 408.898 342.959 402.102 336.469 402.102C329.978 402.102 328.537 408.898 322.046 408.898C315.556 408.898 314.115 402.102 307.625 402.102C301.134 402.102 299.693 408.898 293.203 408.898C286.712 408.898 285.271 402.102 278.781 402.102C272.291 402.102 270.849 408.898 264.359 408.898C257.868 408.898 256.427 402.102 249.936 402.102C243.446 402.102 242.005 408.898 235.514 408.898C229.024 408.898 227.583 402.102 221.093 402.102C214.602 402.102 213.161 408.898 206.67 408.898C200.18 408.898 198.739 402.102 192.249 402.102C185.759 402.102 184.317 408.898 177.827 408.898C171.336 408.898 169.895 402.102 163.405 402.102C156.915 402.102 155.473 408.898 148.983 408.898C142.493 408.898 141.051 402.102 134.561 402.102C128.071 402.102 126.629 408.898 120.139 408.898C113.649 408.898 112.208 402.102 105.717 402.102C99.2271 402.102 97.7854 408.898 91.2952 408.898C84.8049 408.898 83.3632 402.102 76.873 402.102C70.3827 402.102 68.941 408.898 62.4508 408.898C55.9605 408.898 54.5194 402.102 48.0291 402.102C41.5389 402.102 40.0972 408.898 33.6069 408.898C27.0249 408.898 25.7673 402.102 19.1853 402.102C11.4717 402.102 7.25162 416.071 1.85694 406.854C-3.62022 397.497 4.76311 390.554 4.76311 377.464C4.76311 366.23 0.696918 364.06 0.696918 352.826C0.696918 341.737 4.76311 339.278 4.76311 328.189C4.76311 317.099 0.696918 314.64 0.696918 303.551C0.696918 292.462 4.76311 290.002 4.76311 278.913C4.76311 267.824 0.696918 265.365 0.696918 254.275C0.696918 243.186 4.76311 240.727 4.76311 229.638C4.76311 218.549 0.696918 216.089 0.696918 205C0.696918 193.911 4.76311 191.451 4.76311 180.362C4.76311 169.273 0.696918 166.814 0.696918 155.725C0.696918 144.635 4.76311 142.176 4.76311 131.087C4.76311 119.998 0.696918 117.538 0.696918 106.449C0.696918 95.3601 4.76311 92.9007 4.76311 81.8115C4.76311 70.7224 0.696918 68.2629 0.696918 57.1738C0.696918 45.9361 4.76311 43.7738 4.76311 32.5361C4.76311 19.4109 -3.59059 12.4511 1.90109 3.06989Z"/></clipPath></defs>
</svg>
