<svg preserveAspectRatio="none" width="390" height="850" viewBox="0 0 390 850" fill="none" xmlns="http://www.w3.org/2000/svg">
<path fill-rule="evenodd" clip-rule="evenodd" d="M 6.000 0.000 L 390.000 0.000 L 390.000 850.000 L 6.000 850.000 C 2.800 839.506, 2.800 829.012, 6.000 818.519 C 9.200 808.025, 9.200 797.531, 6.000 787.037 C 2.800 776.543, 2.800 766.049, 6.000 755.556 C 9.200 745.062, 9.200 734.568, 6.000 724.074 C 2.800 713.580, 2.800 703.086, 6.000 692.593 C 9.200 682.099, 9.200 671.605, 6.000 661.111 C 2.800 650.617, 2.800 640.123, 6.000 629.630 C 9.200 619.136, 9.200 608.642, 6.000 598.148 C 2.800 587.654, 2.800 577.160, 6.000 566.667 C 9.200 556.173, 9.200 545.679, 6.000 535.185 C 2.800 524.691, 2.800 514.198, 6.000 503.704 C 9.200 493.210, 9.200 482.716, 6.000 472.222 C 2.800 461.728, 2.800 451.235, 6.000 440.741 C 9.200 430.247, 9.200 419.753, 6.000 409.259 C 2.800 398.765, 2.800 388.272, 6.000 377.778 C 9.200 367.284, 9.200 356.790, 6.000 346.296 C 2.800 335.802, 2.800 325.309, 6.000 314.815 C 9.200 304.321, 9.200 293.827, 6.000 283.333 C 2.800 272.840, 2.800 262.346, 6.000 251.852 C 9.200 241.358, 9.200 230.864, 6.000 220.370 C 2.800 209.877, 2.800 199.383, 6.000 188.889 C 9.200 178.395, 9.200 167.901, 6.000 157.407 C 2.800 146.914, 2.800 136.420, 6.000 125.926 C 9.200 115.432, 9.200 104.938, 6.000 94.444 C 2.800 83.951, 2.800 73.457, 6.000 62.963 C 9.200 52.469, 9.200 41.975, 6.000 31.481 C 2.800 20.988, 2.800 10.494, 6.000 0.000 Z" fill="white"/>
</svg>