<svg preserveAspectRatio="none" width="1616" height="826" viewBox="0 0 1616 826" fill="none" xmlns="http://www.w3.org/2000/svg">
<path fill-rule="evenodd" clip-rule="evenodd" d="M0 6.1847C0 -12.0539 22.0696 15.9124 36.8512 15.9124C49.4895 15.9124 51.914 2.2197 64.5523 2.2197C77.0188 2.2197 79.7881 15.9124 92.2545 15.9124C104.721 15.9124 107.489 2.2197 119.956 2.2197C132.422 2.2197 135.191 15.9124 147.658 15.9124C160.124 15.9124 162.894 2.2197 175.36 2.2197C187.827 2.2197 190.596 15.9124 203.062 15.9124C215.529 15.9124 218.297 2.2197 230.763 2.2197C243.23 2.2197 245.999 15.9124 258.466 15.9124C270.932 15.9124 273.7 2.2197 286.167 2.2197C298.633 2.2197 301.402 15.9124 313.869 15.9124C326.335 15.9124 329.104 2.2197 341.57 2.2197C354.037 2.2197 356.806 15.9124 369.272 15.9124C381.739 15.9124 384.507 2.2197 396.973 2.2197C409.44 2.2197 412.209 15.9124 424.676 15.9124C437.142 15.9124 439.91 2.2197 452.377 2.2197C464.843 2.2197 467.612 15.9124 480.079 15.9124C492.545 15.9124 495.315 2.2197 507.781 2.2197C520.248 2.2197 523.017 15.9124 535.483 15.9124C547.95 15.9124 550.718 2.2197 563.184 2.2197C575.651 2.2197 578.42 15.9124 590.887 15.9124C603.353 15.9124 606.121 2.2197 618.588 2.2197C631.054 2.2197 633.824 15.9124 646.29 15.9124C658.756 15.9124 661.525 2.2197 673.991 2.2197C686.458 2.2197 689.227 15.9124 701.693 15.9124C714.16 15.9124 716.928 2.2197 729.394 2.2197C741.861 2.2197 744.63 15.9124 757.097 15.9124C769.563 15.9124 772.331 2.2197 784.798 2.2197C797.264 2.2197 800.034 15.9124 812.5 15.9124C824.967 15.9124 827.736 2.2197 840.202 2.2197C852.669 2.2197 855.438 15.9124 867.904 15.9124C880.371 15.9124 883.139 2.2197 895.606 2.2197C908.072 2.2197 910.841 15.9124 923.308 15.9124C935.774 15.9124 938.542 2.2197 951.009 2.2197C963.475 2.2197 966.245 15.9124 978.711 15.9124C991.178 15.9124 993.946 2.2197 1006.41 2.2197C1018.88 2.2197 1021.65 15.9124 1034.11 15.9124C1046.58 15.9124 1049.35 2.2197 1061.82 2.2197C1074.28 2.2197 1077.05 15.9124 1089.52 15.9124C1101.98 15.9124 1104.75 2.2197 1117.22 2.2197C1129.69 2.2197 1132.45 15.9124 1144.92 15.9124C1157.39 15.9124 1160.16 2.2197 1172.62 2.2197C1185.09 2.2197 1187.86 15.9124 1200.33 15.9124C1212.79 15.9124 1215.56 2.2197 1228.03 2.2197C1240.49 2.2197 1243.26 15.9124 1255.73 15.9124C1268.2 15.9124 1270.96 2.2197 1283.43 2.2197C1295.9 2.2197 1298.66 15.9124 1311.13 15.9124C1323.6 15.9124 1326.37 2.2197 1338.83 2.2197C1351.3 2.2197 1354.07 15.9124 1366.54 15.9124C1379 15.9124 1381.77 2.2197 1394.24 2.2197C1406.7 2.2197 1409.47 15.9124 1421.94 15.9124C1434.41 15.9124 1437.17 2.2197 1449.64 2.2197C1462.11 2.2197 1464.88 15.9124 1477.34 15.9124C1489.81 15.9124 1492.58 2.2197 1505.04 2.2197C1517.51 2.2197 1520.28 15.9124 1532.75 15.9124C1545.21 15.9124 1547.98 2.2197 1560.45 2.2197C1573.09 2.2197 1575.51 15.9124 1588.15 15.9124C1602.97 15.9124 1615.85 -12.23 1615.85 6.33728C1615.85 25.1882 1615.85 39.1762 1615.85 65.5483C1615.85 88.1804 1615.85 92.5522 1615.85 115.184C1615.85 137.525 1615.85 142.48 1615.85 164.82C1615.85 187.161 1615.85 192.116 1615.85 214.456C1615.85 236.797 1615.85 241.752 1615.85 264.092C1615.85 286.433 1615.85 291.388 1615.85 313.728C1615.85 336.069 1615.85 341.023 1615.85 363.364C1615.85 385.705 1615.85 390.659 1615.85 413C1615.85 435.341 1615.85 440.295 1615.85 462.636C1615.85 484.977 1615.85 489.931 1615.85 512.272C1615.85 534.613 1615.85 539.567 1615.85 561.908C1615.85 584.248 1615.85 589.203 1615.85 611.544C1615.85 633.884 1615.85 638.839 1615.85 661.18C1615.85 683.52 1615.85 688.475 1615.85 710.816C1615.85 733.448 1615.85 737.82 1615.85 760.452C1615.85 786.824 1615.85 800.812 1615.85 819.663C1615.85 838.23 1602.97 810.088 1588.15 810.088C1575.51 810.088 1573.09 823.78 1560.45 823.78C1547.98 823.78 1545.21 810.088 1532.75 810.088C1520.28 810.088 1517.51 823.78 1505.04 823.78C1492.58 823.78 1489.81 810.088 1477.34 810.088C1464.88 810.088 1462.11 823.78 1449.64 823.78C1437.17 823.78 1434.41 810.088 1421.94 810.088C1409.47 810.088 1406.7 823.78 1394.24 823.78C1381.77 823.78 1379 810.088 1366.54 810.088C1354.07 810.088 1351.3 823.78 1338.83 823.78C1326.37 823.78 1323.6 810.088 1311.13 810.088C1298.66 810.088 1295.9 823.78 1283.43 823.78C1270.96 823.78 1268.2 810.088 1255.73 810.088C1243.26 810.088 1240.49 823.78 1228.03 823.78C1215.56 823.78 1212.79 810.088 1200.33 810.088C1187.86 810.088 1185.09 823.78 1172.62 823.78C1160.16 823.78 1157.39 810.088 1144.92 810.088C1132.45 810.088 1129.69 823.78 1117.22 823.78C1104.75 823.78 1101.98 810.088 1089.52 810.088C1077.05 810.088 1074.28 823.78 1061.82 823.78C1049.35 823.78 1046.58 810.088 1034.11 810.088C1021.65 810.088 1018.88 823.78 1006.41 823.78C993.946 823.78 991.178 810.088 978.711 810.088C966.245 810.088 963.475 823.78 951.009 823.78C938.542 823.78 935.774 810.088 923.308 810.088C910.841 810.088 908.072 823.78 895.606 823.78C883.139 823.78 880.371 810.088 867.904 810.088C855.438 810.088 852.669 823.78 840.202 823.78C827.736 823.78 824.967 810.088 812.5 810.088C800.034 810.088 797.264 823.78 784.798 823.78C772.331 823.78 769.563 810.088 757.097 810.088C744.63 810.088 741.861 823.78 729.394 823.78C716.928 823.78 714.16 810.088 701.693 810.088C689.227 810.088 686.458 823.78 673.991 823.78C661.525 823.78 658.756 810.088 646.29 810.088C633.824 810.088 631.054 823.78 618.588 823.78C606.121 823.78 603.353 810.088 590.887 810.088C578.42 810.088 575.651 823.78 563.184 823.78C550.718 823.78 547.95 810.088 535.483 810.088C523.017 810.088 520.248 823.78 507.781 823.78C495.315 823.78 492.545 810.088 480.079 810.088C467.612 810.088 464.843 823.78 452.377 823.78C439.91 823.78 437.142 810.088 424.676 810.088C412.209 810.088 409.44 823.78 396.973 823.78C384.507 823.78 381.739 810.088 369.272 810.088C356.806 810.088 354.037 823.78 341.57 823.78C329.104 823.78 326.335 810.088 313.869 810.088C301.402 810.088 298.633 823.78 286.167 823.78C273.7 823.78 270.932 810.088 258.466 810.088C245.999 810.088 243.23 823.78 230.763 823.78C218.297 823.78 215.529 810.088 203.062 810.088C190.596 810.088 187.827 823.78 175.36 823.78C162.894 823.78 160.124 810.088 147.658 810.088C135.191 810.088 132.422 823.78 119.956 823.78C107.489 823.78 104.721 810.088 92.2545 810.088C79.7881 810.088 77.0188 823.78 64.5523 823.78C51.9096 823.78 49.494 810.088 36.8512 810.088C22.035 810.088 0 838.23 0 819.663C0 800.812 0 786.824 0 760.452C0 737.82 0 733.448 0 710.816C0 688.475 0 683.52 0 661.18C0 638.839 0 633.884 0 611.544C0 589.203 0 584.248 0 561.908C0 539.567 0 534.613 0 512.272C0 489.931 0 484.977 0 462.636C0 440.295 0 435.341 0 413C0 390.659 0 385.705 0 363.364C0 341.023 0 336.069 0 313.728C0 291.388 0 286.433 0 264.092C0 241.752 0 236.797 0 214.456C0 192.116 0 187.161 0 164.82C0 142.48 0 137.525 0 115.184C0 92.5444 0 88.1882 0 65.5483C0 39.1058 0 25.0845 0 6.1847Z" fill="#FEEDBF"/>
</svg>

