<svg preserveAspectRatio="none" width="1600" height="800" viewBox="0 0 1600 800" fill="none" xmlns="http://www.w3.org/2000/svg">
<path d="M 0 20.00 L 5 34.14 L 10 40.00 L 15 34.14 L 20 20.00 L 25 5.86 L 30 0.00 L 35 5.86 L 40 20.00 L 45 34.14 L 50 40.00 L 55 34.14 L 60 20.00 L 65 5.86 L 70 0.00 L 75 5.86 L 80 20.00 L 85 34.14 L 90 40.00 L 95 34.14 L 100 20.00 L 105 5.86 L 110 0.00 L 115 5.86 L 120 20.00 L 125 34.14 L 130 40.00 L 135 34.14 L 140 20.00 L 145 5.86 L 150 0.00 L 155 5.86 L 160 20.00 L 165 34.14 L 170 40.00 L 175 34.14 L 180 20.00 L 185 5.86 L 190 0.00 L 195 5.86 L 200 20.00 L 205 34.14 L 210 40.00 L 215 34.14 L 220 20.00 L 225 5.86 L 230 0.00 L 235 5.86 L 240 20.00 L 245 34.14 L 250 40.00 L 255 34.14 L 260 20.00 L 265 5.86 L 270 0.00 L 275 5.86 L 280 20.00 L 285 34.14 L 290 40.00 L 295 34.14 L 300 20.00 L 305 5.86 L 310 0.00 L 315 5.86 L 320 20.00 L 325 34.14 L 330 40.00 L 335 34.14 L 340 20.00 L 345 5.86 L 350 0.00 L 355 5.86 L 360 20.00 L 365 34.14 L 370 40.00 L 375 34.14 L 380 20.00 L 385 5.86 L 390 0.00 L 395 5.86 L 400 20.00 L 405 34.14 L 410 40.00 L 415 34.14 L 420 20.00 L 425 5.86 L 430 0.00 L 435 5.86 L 440 20.00 L 445 34.14 L 450 40.00 L 455 34.14 L 460 20.00 L 465 5.86 L 470 0.00 L 475 5.86 L 480 20.00 L 485 34.14 L 490 40.00 L 495 34.14 L 500 20.00 L 505 5.86 L 510 0.00 L 515 5.86 L 520 20.00 L 525 34.14 L 530 40.00 L 535 34.14 L 540 20.00 L 545 5.86 L 550 0.00 L 555 5.86 L 560 20.00 L 565 34.14 L 570 40.00 L 575 34.14 L 580 20.00 L 585 5.86 L 590 0.00 L 595 5.86 L 600 20.00 L 605 34.14 L 610 40.00 L 615 34.14 L 620 20.00 L 625 5.86 L 630 0.00 L 635 5.86 L 640 20.00 L 645 34.14 L 650 40.00 L 655 34.14 L 660 20.00 L 665 5.86 L 670 0.00 L 675 5.86 L 680 20.00 L 685 34.14 L 690 40.00 L 695 34.14 L 700 20.00 L 705 5.86 L 710 0.00 L 715 5.86 L 720 20.00 L 725 34.14 L 730 40.00 L 735 34.14 L 740 20.00 L 745 5.86 L 750 0.00 L 755 5.86 L 760 20.00 L 765 34.14 L 770 40.00 L 775 34.14 L 780 20.00 L 785 5.86 L 790 0.00 L 795 5.86 L 800 20.00 L 805 34.14 L 810 40.00 L 815 34.14 L 820 20.00 L 825 5.86 L 830 0.00 L 835 5.86 L 840 20.00 L 845 34.14 L 850 40.00 L 855 34.14 L 860 20.00 L 865 5.86 L 870 0.00 L 875 5.86 L 880 20.00 L 885 34.14 L 890 40.00 L 895 34.14 L 900 20.00 L 905 5.86 L 910 0.00 L 915 5.86 L 920 20.00 L 925 34.14 L 930 40.00 L 935 34.14 L 940 20.00 L 945 5.86 L 950 0.00 L 955 5.86 L 960 20.00 L 965 34.14 L 970 40.00 L 975 34.14 L 980 20.00 L 985 5.86 L 990 0.00 L 995 5.86 L 1000 20.00 L 1005 34.14 L 1010 40.00 L 1015 34.14 L 1020 20.00 L 1025 5.86 L 1030 0.00 L 1035 5.86 L 1040 20.00 L 1045 34.14 L 1050 40.00 L 1055 34.14 L 1060 20.00 L 1065 5.86 L 1070 0.00 L 1075 5.86 L 1080 20.00 L 1085 34.14 L 1090 40.00 L 1095 34.14 L 1100 20.00 L 1105 5.86 L 1110 0.00 L 1115 5.86 L 1120 20.00 L 1125 34.14 L 1130 40.00 L 1135 34.14 L 1140 20.00 L 1145 5.86 L 1150 0.00 L 1155 5.86 L 1160 20.00 L 1165 34.14 L 1170 40.00 L 1175 34.14 L 1180 20.00 L 1185 5.86 L 1190 0.00 L 1195 5.86 L 1200 20.00 L 1205 34.14 L 1210 40.00 L 1215 34.14 L 1220 20.00 L 1225 5.86 L 1230 0.00 L 1235 5.86 L 1240 20.00 L 1245 34.14 L 1250 40.00 L 1255 34.14 L 1260 20.00 L 1265 5.86 L 1270 0.00 L 1275 5.86 L 1280 20.00 L 1285 34.14 L 1290 40.00 L 1295 34.14 L 1300 20.00 L 1305 5.86 L 1310 0.00 L 1315 5.86 L 1320 20.00 L 1325 34.14 L 1330 40.00 L 1335 34.14 L 1340 20.00 L 1345 5.86 L 1350 0.00 L 1355 5.86 L 1360 20.00 L 1365 34.14 L 1370 40.00 L 1375 34.14 L 1380 20.00 L 1385 5.86 L 1390 0.00 L 1395 5.86 L 1400 20.00 L 1405 34.14 L 1410 40.00 L 1415 34.14 L 1420 20.00 L 1425 5.86 L 1430 0.00 L 1435 5.86 L 1440 20.00 L 1445 34.14 L 1450 40.00 L 1455 34.14 L 1460 20.00 L 1465 5.86 L 1470 0.00 L 1475 5.86 L 1480 20.00 L 1485 34.14 L 1490 40.00 L 1495 34.14 L 1500 20.00 L 1505 5.86 L 1510 0.00 L 1515 5.86 L 1520 20.00 L 1525 34.14 L 1530 40.00 L 1535 34.14 L 1540 20.00 L 1545 5.86 L 1550 0.00 L 1555 5.86 L 1560 20.00 L 1565 34.14 L 1570 40.00 L 1575 34.14 L 1580 20.00 L 1585 5.86 L 1590 0.00 L 1595 5.86 L 1600 20.00 L 1580.00 0 L 1594.14 5 L 1600.00 10 L 1594.14 15 L 1580.00 20 L 1565.86 25 L 1560.00 30 L 1565.86 35 L 1580.00 40 L 1594.14 45 L 1600.00 50 L 1594.14 55 L 1580.00 60 L 1565.86 65 L 1560.00 70 L 1565.86 75 L 1580.00 80 L 1594.14 85 L 1600.00 90 L 1594.14 95 L 1580.00 100 L 1565.86 105 L 1560.00 110 L 1565.86 115 L 1580.00 120 L 1594.14 125 L 1600.00 130 L 1594.14 135 L 1580.00 140 L 1565.86 145 L 1560.00 150 L 1565.86 155 L 1580.00 160 L 1594.14 165 L 1600.00 170 L 1594.14 175 L 1580.00 180 L 1565.86 185 L 1560.00 190 L 1565.86 195 L 1580.00 200 L 1594.14 205 L 1600.00 210 L 1594.14 215 L 1580.00 220 L 1565.86 225 L 1560.00 230 L 1565.86 235 L 1580.00 240 L 1594.14 245 L 1600.00 250 L 1594.14 255 L 1580.00 260 L 1565.86 265 L 1560.00 270 L 1565.86 275 L 1580.00 280 L 1594.14 285 L 1600.00 290 L 1594.14 295 L 1580.00 300 L 1565.86 305 L 1560.00 310 L 1565.86 315 L 1580.00 320 L 1594.14 325 L 1600.00 330 L 1594.14 335 L 1580.00 340 L 1565.86 345 L 1560.00 350 L 1565.86 355 L 1580.00 360 L 1594.14 365 L 1600.00 370 L 1594.14 375 L 1580.00 380 L 1565.86 385 L 1560.00 390 L 1565.86 395 L 1580.00 400 L 1594.14 405 L 1600.00 410 L 1594.14 415 L 1580.00 420 L 1565.86 425 L 1560.00 430 L 1565.86 435 L 1580.00 440 L 1594.14 445 L 1600.00 450 L 1594.14 455 L 1580.00 460 L 1565.86 465 L 1560.00 470 L 1565.86 475 L 1580.00 480 L 1594.14 485 L 1600.00 490 L 1594.14 495 L 1580.00 500 L 1565.86 505 L 1560.00 510 L 1565.86 515 L 1580.00 520 L 1594.14 525 L 1600.00 530 L 1594.14 535 L 1580.00 540 L 1565.86 545 L 1560.00 550 L 1565.86 555 L 1580.00 560 L 1594.14 565 L 1600.00 570 L 1594.14 575 L 1580.00 580 L 1565.86 585 L 1560.00 590 L 1565.86 595 L 1580.00 600 L 1594.14 605 L 1600.00 610 L 1594.14 615 L 1580.00 620 L 1565.86 625 L 1560.00 630 L 1565.86 635 L 1580.00 640 L 1594.14 645 L 1600.00 650 L 1594.14 655 L 1580.00 660 L 1565.86 665 L 1560.00 670 L 1565.86 675 L 1580.00 680 L 1594.14 685 L 1600.00 690 L 1594.14 695 L 1580.00 700 L 1565.86 705 L 1560.00 710 L 1565.86 715 L 1580.00 720 L 1594.14 725 L 1600.00 730 L 1594.14 735 L 1580.00 740 L 1565.86 745 L 1560.00 750 L 1565.86 755 L 1580.00 760 L 1594.14 765 L 1600.00 770 L 1594.14 775 L 1580.00 780 L 1565.86 785 L 1560.00 790 L 1565.86 795 L 1580.00 800 L 1600 780.00 L 1595 794.14 L 1590 800.00 L 1585 794.14 L 1580 780.00 L 1575 765.86 L 1570 760.00 L 1565 765.86 L 1560 780.00 L 1555 794.14 L 1550 800.00 L 1545 794.14 L 1540 780.00 L 1535 765.86 L 1530 760.00 L 1525 765.86 L 1520 780.00 L 1515 794.14 L 1510 800.00 L 1505 794.14 L 1500 780.00 L 1495 765.86 L 1490 760.00 L 1485 765.86 L 1480 780.00 L 1475 794.14 L 1470 800.00 L 1465 794.14 L 1460 780.00 L 1455 765.86 L 1450 760.00 L 1445 765.86 L 1440 780.00 L 1435 794.14 L 1430 800.00 L 1425 794.14 L 1420 780.00 L 1415 765.86 L 1410 760.00 L 1405 765.86 L 1400 780.00 L 1395 794.14 L 1390 800.00 L 1385 794.14 L 1380 780.00 L 1375 765.86 L 1370 760.00 L 1365 765.86 L 1360 780.00 L 1355 794.14 L 1350 800.00 L 1345 794.14 L 1340 780.00 L 1335 765.86 L 1330 760.00 L 1325 765.86 L 1320 780.00 L 1315 794.14 L 1310 800.00 L 1305 794.14 L 1300 780.00 L 1295 765.86 L 1290 760.00 L 1285 765.86 L 1280 780.00 L 1275 794.14 L 1270 800.00 L 1265 794.14 L 1260 780.00 L 1255 765.86 L 1250 760.00 L 1245 765.86 L 1240 780.00 L 1235 794.14 L 1230 800.00 L 1225 794.14 L 1220 780.00 L 1215 765.86 L 1210 760.00 L 1205 765.86 L 1200 780.00 L 1195 794.14 L 1190 800.00 L 1185 794.14 L 1180 780.00 L 1175 765.86 L 1170 760.00 L 1165 765.86 L 1160 780.00 L 1155 794.14 L 1150 800.00 L 1145 794.14 L 1140 780.00 L 1135 765.86 L 1130 760.00 L 1125 765.86 L 1120 780.00 L 1115 794.14 L 1110 800.00 L 1105 794.14 L 1100 780.00 L 1095 765.86 L 1090 760.00 L 1085 765.86 L 1080 780.00 L 1075 794.14 L 1070 800.00 L 1065 794.14 L 1060 780.00 L 1055 765.86 L 1050 760.00 L 1045 765.86 L 1040 780.00 L 1035 794.14 L 1030 800.00 L 1025 794.14 L 1020 780.00 L 1015 765.86 L 1010 760.00 L 1005 765.86 L 1000 780.00 L 995 794.14 L 990 800.00 L 985 794.14 L 980 780.00 L 975 765.86 L 970 760.00 L 965 765.86 L 960 780.00 L 955 794.14 L 950 800.00 L 945 794.14 L 940 780.00 L 935 765.86 L 930 760.00 L 925 765.86 L 920 780.00 L 915 794.14 L 910 800.00 L 905 794.14 L 900 780.00 L 895 765.86 L 890 760.00 L 885 765.86 L 880 780.00 L 875 794.14 L 870 800.00 L 865 794.14 L 860 780.00 L 855 765.86 L 850 760.00 L 845 765.86 L 840 780.00 L 835 794.14 L 830 800.00 L 825 794.14 L 820 780.00 L 815 765.86 L 810 760.00 L 805 765.86 L 800 780.00 L 795 794.14 L 790 800.00 L 785 794.14 L 780 780.00 L 775 765.86 L 770 760.00 L 765 765.86 L 760 780.00 L 755 794.14 L 750 800.00 L 745 794.14 L 740 780.00 L 735 765.86 L 730 760.00 L 725 765.86 L 720 780.00 L 715 794.14 L 710 800.00 L 705 794.14 L 700 780.00 L 695 765.86 L 690 760.00 L 685 765.86 L 680 780.00 L 675 794.14 L 670 800.00 L 665 794.14 L 660 780.00 L 655 765.86 L 650 760.00 L 645 765.86 L 640 780.00 L 635 794.14 L 630 800.00 L 625 794.14 L 620 780.00 L 615 765.86 L 610 760.00 L 605 765.86 L 600 780.00 L 595 794.14 L 590 800.00 L 585 794.14 L 580 780.00 L 575 765.86 L 570 760.00 L 565 765.86 L 560 780.00 L 555 794.14 L 550 800.00 L 545 794.14 L 540 780.00 L 535 765.86 L 530 760.00 L 525 765.86 L 520 780.00 L 515 794.14 L 510 800.00 L 505 794.14 L 500 780.00 L 495 765.86 L 490 760.00 L 485 765.86 L 480 780.00 L 475 794.14 L 470 800.00 L 465 794.14 L 460 780.00 L 455 765.86 L 450 760.00 L 445 765.86 L 440 780.00 L 435 794.14 L 430 800.00 L 425 794.14 L 420 780.00 L 415 765.86 L 410 760.00 L 405 765.86 L 400 780.00 L 395 794.14 L 390 800.00 L 385 794.14 L 380 780.00 L 375 765.86 L 370 760.00 L 365 765.86 L 360 780.00 L 355 794.14 L 350 800.00 L 345 794.14 L 340 780.00 L 335 765.86 L 330 760.00 L 325 765.86 L 320 780.00 L 315 794.14 L 310 800.00 L 305 794.14 L 300 780.00 L 295 765.86 L 290 760.00 L 285 765.86 L 280 780.00 L 275 794.14 L 270 800.00 L 265 794.14 L 260 780.00 L 255 765.86 L 250 760.00 L 245 765.86 L 240 780.00 L 235 794.14 L 230 800.00 L 225 794.14 L 220 780.00 L 215 765.86 L 210 760.00 L 205 765.86 L 200 780.00 L 195 794.14 L 190 800.00 L 185 794.14 L 180 780.00 L 175 765.86 L 170 760.00 L 165 765.86 L 160 780.00 L 155 794.14 L 150 800.00 L 145 794.14 L 140 780.00 L 135 765.86 L 130 760.00 L 125 765.86 L 120 780.00 L 115 794.14 L 110 800.00 L 105 794.14 L 100 780.00 L 95 765.86 L 90 760.00 L 85 765.86 L 80 780.00 L 75 794.14 L 70 800.00 L 65 794.14 L 60 780.00 L 55 765.86 L 50 760.00 L 45 765.86 L 40 780.00 L 35 794.14 L 30 800.00 L 25 794.14 L 20 780.00 L 15 765.86 L 10 760.00 L 5 765.86 L 0 780.00 L 20.00 800 L 34.14 795 L 40.00 790 L 34.14 785 L 20.00 780 L 5.86 775 L 0.00 770 L 5.86 765 L 20.00 760 L 34.14 755 L 40.00 750 L 34.14 745 L 20.00 740 L 5.86 735 L 0.00 730 L 5.86 725 L 20.00 720 L 34.14 715 L 40.00 710 L 34.14 705 L 20.00 700 L 5.86 695 L 0.00 690 L 5.86 685 L 20.00 680 L 34.14 675 L 40.00 670 L 34.14 665 L 20.00 660 L 5.86 655 L 0.00 650 L 5.86 645 L 20.00 640 L 34.14 635 L 40.00 630 L 34.14 625 L 20.00 620 L 5.86 615 L 0.00 610 L 5.86 605 L 20.00 600 L 34.14 595 L 40.00 590 L 34.14 585 L 20.00 580 L 5.86 575 L 0.00 570 L 5.86 565 L 20.00 560 L 34.14 555 L 40.00 550 L 34.14 545 L 20.00 540 L 5.86 535 L 0.00 530 L 5.86 525 L 20.00 520 L 34.14 515 L 40.00 510 L 34.14 505 L 20.00 500 L 5.86 495 L 0.00 490 L 5.86 485 L 20.00 480 L 34.14 475 L 40.00 470 L 34.14 465 L 20.00 460 L 5.86 455 L 0.00 450 L 5.86 445 L 20.00 440 L 34.14 435 L 40.00 430 L 34.14 425 L 20.00 420 L 5.86 415 L 0.00 410 L 5.86 405 L 20.00 400 L 34.14 395 L 40.00 390 L 34.14 385 L 20.00 380 L 5.86 375 L 0.00 370 L 5.86 365 L 20.00 360 L 34.14 355 L 40.00 350 L 34.14 345 L 20.00 340 L 5.86 335 L 0.00 330 L 5.86 325 L 20.00 320 L 34.14 315 L 40.00 310 L 34.14 305 L 20.00 300 L 5.86 295 L 0.00 290 L 5.86 285 L 20.00 280 L 34.14 275 L 40.00 270 L 34.14 265 L 20.00 260 L 5.86 255 L 0.00 250 L 5.86 245 L 20.00 240 L 34.14 235 L 40.00 230 L 34.14 225 L 20.00 220 L 5.86 215 L 0.00 210 L 5.86 205 L 20.00 200 L 34.14 195 L 40.00 190 L 34.14 185 L 20.00 180 L 5.86 175 L 0.00 170 L 5.86 165 L 20.00 160 L 34.14 155 L 40.00 150 L 34.14 145 L 20.00 140 L 5.86 135 L 0.00 130 L 5.86 125 L 20.00 120 L 34.14 115 L 40.00 110 L 34.14 105 L 20.00 100 L 5.86 95 L 0.00 90 L 5.86 85 L 20.00 80 L 34.14 75 L 40.00 70 L 34.14 65 L 20.00 60 L 5.86 55 L 0.00 50 L 5.86 45 L 20.00 40 L 34.14 35 L 40.00 30 L 34.14 25 L 20.00 20 L 5.86 15 L 0.00 10 L 5.86 5 L 20.00 0 Z" fill="#FEEDBF"/>
</svg>