<svg width="1469" height="422" viewBox="0 0 1469 422" fill="none" xmlns="http://www.w3.org/2000/svg">
<path fill-rule="evenodd" clip-rule="evenodd" d="M0.143996 3.15974C0.558067 -6.15831 12.1682 8.12957 25.6763 8.12957C37.2258 8.12957 39.4415 1.13403 50.9909 1.13403C62.3833 1.13403 64.9141 8.12957 76.3065 8.12957C87.6989 8.12957 90.2286 1.13403 101.621 1.13403C113.013 1.13403 115.544 8.12957 126.937 8.12957C138.329 8.12957 140.86 1.13403 152.252 1.13403C163.645 1.13403 166.175 8.12957 177.568 8.12957C188.96 8.12957 191.49 1.13403 202.882 1.13403C214.275 1.13403 216.805 8.12957 228.198 8.12957C239.59 8.12957 242.12 1.13403 253.512 1.13403C264.905 1.13403 267.436 8.12957 278.828 8.12957C290.22 8.12957 292.75 1.13403 304.143 1.13403C315.535 1.13403 318.066 8.12957 329.458 8.12957C340.85 8.12957 343.38 1.13403 354.773 1.13403C366.165 1.13403 368.696 8.12957 380.088 8.12957C391.481 8.12957 394.01 1.13403 405.403 1.13403C416.795 1.13403 419.326 8.12957 430.718 8.12957C442.111 8.12957 444.641 1.13403 456.034 1.13403C467.426 1.13403 469.957 8.12957 481.349 8.12957C492.742 8.12957 495.272 1.13403 506.664 1.13403C518.056 1.13403 520.587 8.12957 531.98 8.12957C543.372 8.12957 545.902 1.13403 557.294 1.13403C568.686 1.13403 571.217 8.12957 582.61 8.12957C594.002 8.12957 596.532 1.13403 607.924 1.13403C619.317 1.13403 621.847 8.12957 633.24 8.12957C644.632 8.12957 647.162 1.13403 658.554 1.13403C669.947 1.13403 672.477 8.12957 683.87 8.12957C695.262 8.12957 697.792 1.13403 709.184 1.13403C720.577 1.13403 723.108 8.12957 734.5 8.12957C745.892 8.12957 748.423 1.13403 759.816 1.13403C771.208 1.13403 773.739 8.12957 785.131 8.12957C796.524 8.12957 799.053 1.13403 810.446 1.13403C821.838 1.13403 824.369 8.12957 835.761 8.12957C847.154 8.12957 849.683 1.13403 861.076 1.13403C872.468 1.13403 874.999 8.12957 886.391 8.12957C897.784 8.12957 900.314 1.13403 911.706 1.13403C923.098 1.13403 925.629 8.12957 937.021 8.12957C948.414 8.12957 950.944 1.13403 962.336 1.13403C973.728 1.13403 976.259 8.12957 987.652 8.12957C999.044 8.12957 1001.57 1.13403 1012.97 1.13403C1024.36 1.13403 1026.89 8.12957 1038.28 8.12957C1049.67 8.12957 1052.2 1.13403 1063.6 1.13403C1074.99 1.13403 1077.52 8.12957 1088.91 8.12957C1100.31 8.12957 1102.84 1.13403 1114.23 1.13403C1125.62 1.13403 1128.15 8.12957 1139.54 8.12957C1150.94 8.12957 1153.47 1.13403 1164.86 1.13403C1176.25 1.13403 1178.78 8.12957 1190.17 8.12957C1201.56 8.12957 1204.1 1.13403 1215.49 1.13403C1226.88 1.13403 1229.41 8.12957 1240.8 8.12957C1252.2 8.12957 1254.73 1.13403 1266.12 1.13403C1277.51 1.13403 1280.04 8.12957 1291.43 8.12957C1302.83 8.12957 1305.36 1.13403 1316.75 1.13403C1328.14 1.13403 1330.67 8.12957 1342.06 8.12957C1353.46 8.12957 1355.99 1.13403 1367.38 1.13403C1378.77 1.13403 1381.3 8.12957 1392.69 8.12957C1404.09 8.12957 1406.62 1.13403 1418.01 1.13403C1429.56 1.13403 1431.77 8.12957 1443.32 8.12957C1456.87 8.12957 1468.71 -6.24825 1468.55 3.23769C1468.39 12.8685 1468.64 20.015 1468.64 33.4884C1468.64 45.051 1468.52 47.2846 1468.52 58.8472C1468.52 70.2609 1468.64 72.7923 1468.64 84.206C1468.64 95.6197 1468.52 98.1511 1468.52 109.565C1468.52 120.978 1468.64 123.51 1468.64 134.924C1468.64 146.337 1468.52 148.869 1468.52 160.282C1468.52 171.696 1468.64 174.227 1468.64 185.641C1468.64 197.055 1468.52 199.586 1468.52 211C1468.52 222.414 1468.64 224.945 1468.64 236.359C1468.64 247.773 1468.52 250.304 1468.52 261.718C1468.52 273.131 1468.64 275.663 1468.64 287.076C1468.64 298.49 1468.52 301.022 1468.52 312.435C1468.52 323.849 1468.64 326.38 1468.64 337.794C1468.64 349.208 1468.52 351.739 1468.52 363.153C1468.52 374.715 1468.64 376.949 1468.64 388.512C1468.64 401.985 1468.39 409.131 1468.55 418.762C1468.71 428.248 1456.86 413.87 1443.32 413.87C1431.77 413.87 1429.56 420.866 1418.01 420.866C1406.62 420.866 1404.09 413.87 1392.69 413.87C1381.3 413.87 1378.77 420.866 1367.38 420.866C1355.99 420.866 1353.46 413.87 1342.06 413.87C1330.67 413.87 1328.14 420.866 1316.75 420.866C1305.36 420.866 1302.83 413.87 1291.43 413.87C1280.04 413.87 1277.51 420.866 1266.12 420.866C1254.73 420.866 1252.2 413.87 1240.8 413.87C1229.41 413.87 1226.88 420.866 1215.49 420.866C1204.1 420.866 1201.56 413.87 1190.17 413.87C1178.78 413.87 1176.25 420.866 1164.86 420.866C1153.47 420.866 1150.94 413.87 1139.54 413.87C1128.15 413.87 1125.62 420.866 1114.23 420.866C1102.84 420.866 1100.31 413.87 1088.91 413.87C1077.52 413.87 1074.99 420.866 1063.6 420.866C1052.2 420.866 1049.67 413.87 1038.28 413.87C1026.89 413.87 1024.36 420.866 1012.97 420.866C1001.57 420.866 999.044 413.87 987.652 413.87C976.259 413.87 973.728 420.866 962.336 420.866C950.944 420.866 948.414 413.87 937.021 413.87C925.629 413.87 923.098 420.866 911.706 420.866C900.314 420.866 897.784 413.87 886.391 413.87C874.999 413.87 872.468 420.866 861.076 420.866C849.683 420.866 847.154 413.87 835.761 413.87C824.369 413.87 821.838 420.866 810.446 420.866C799.053 420.866 796.524 413.87 785.131 413.87C773.739 413.87 771.208 420.866 759.816 420.866C748.423 420.866 745.892 413.87 734.5 413.87C723.108 413.87 720.577 420.866 709.184 420.866C697.792 420.866 695.262 413.87 683.87 413.87C672.477 413.87 669.947 420.866 658.554 420.866C647.162 420.866 644.632 413.87 633.24 413.87C621.847 413.87 619.317 420.866 607.924 420.866C596.532 420.866 594.002 413.87 582.61 413.87C571.217 413.87 568.686 420.866 557.294 420.866C545.902 420.866 543.372 413.87 531.98 413.87C520.587 413.87 518.056 420.866 506.664 420.866C495.272 420.866 492.742 413.87 481.349 413.87C469.957 413.87 467.426 420.866 456.034 420.866C444.641 420.866 442.111 413.87 430.718 413.87C419.326 413.87 416.795 420.866 405.403 420.866C394.01 420.866 391.481 413.87 380.088 413.87C368.696 413.87 366.165 420.866 354.773 420.866C343.38 420.866 340.85 413.87 329.458 413.87C318.066 413.87 315.535 420.866 304.143 420.866C292.75 420.866 290.22 413.87 278.828 413.87C267.436 413.87 264.905 420.866 253.512 420.866C242.12 420.866 239.59 413.87 228.198 413.87C216.805 413.87 214.275 420.866 202.882 420.866C191.49 420.866 188.96 413.87 177.568 413.87C166.175 413.87 163.645 420.866 152.252 420.866C140.86 420.866 138.329 413.87 126.937 413.87C115.544 413.87 113.013 420.866 101.621 420.866C90.2286 420.866 87.6989 413.87 76.3065 413.87C64.9141 413.87 62.3833 420.866 50.9909 420.866C39.4374 420.866 37.2299 413.87 25.6763 413.87C12.1366 413.87 0.549268 428.248 0.140653 418.762C-0.27421 409.131 0.360778 401.985 0.360778 388.512C0.360778 376.949 0.0527879 374.715 0.0527879 363.153C0.0527879 351.739 0.360778 349.208 0.360778 337.794C0.360778 326.38 0.0527879 323.849 0.0527879 312.435C0.0527879 301.022 0.360778 298.49 0.360778 287.076C0.360778 275.663 0.0527879 273.131 0.0527879 261.718C0.0527879 250.304 0.360778 247.773 0.360778 236.359C0.360778 224.945 0.0527879 222.414 0.0527879 211C0.0527879 199.586 0.360778 197.055 0.360778 185.641C0.360778 174.227 0.0527879 171.696 0.0527879 160.282C0.0527879 148.869 0.360778 146.337 0.360778 134.924C0.360778 123.51 0.0527879 120.978 0.0527879 109.565C0.0527879 98.1511 0.360778 95.6197 0.360778 84.206C0.360778 72.7923 0.0527879 70.2609 0.0527879 58.8472C0.0527879 47.2806 0.360778 45.055 0.360778 33.4884C0.360778 19.979 -0.271967 12.8156 0.143996 3.15974Z" fill="#F5C864"/>
</svg>


