<svg preserveAspectRatio="none" width="390" height="797" viewBox="0 0 390 797" fill="none" xmlns="http://www.w3.org/2000/svg">
<path fill-rule="evenodd" clip-rule="evenodd" d="M 0.000 6.000 C 10.000 2.800, 20.000 2.800, 30.000 6.000 C 40.000 9.200, 50.000 9.200, 60.000 6.000 C 70.000 2.800, 80.000 2.800, 90.000 6.000 C 100.000 9.200, 110.000 9.200, 120.000 6.000 C 130.000 2.800, 140.000 2.800, 150.000 6.000 C 160.000 9.200, 170.000 9.200, 180.000 6.000 C 190.000 2.800, 200.000 2.800, 210.000 6.000 C 220.000 9.200, 230.000 9.200, 240.000 6.000 C 250.000 2.800, 260.000 2.800, 270.000 6.000 C 280.000 9.200, 290.000 9.200, 300.000 6.000 C 310.000 2.800, 320.000 2.800, 330.000 6.000 C 340.000 9.200, 350.000 9.200, 360.000 6.000 C 370.000 2.800, 380.000 2.800, 390.000 6.000 L 390.000 791.000 C 380.000 787.800, 370.000 787.800, 360.000 791.000 C 350.000 794.200, 340.000 794.200, 330.000 791.000 C 320.000 787.800, 310.000 787.800, 300.000 791.000 C 290.000 794.200, 280.000 794.200, 270.000 791.000 C 260.000 787.800, 250.000 787.800, 240.000 791.000 C 230.000 794.200, 220.000 794.200, 210.000 791.000 C 200.000 787.800, 190.000 787.800, 180.000 791.000 C 170.000 794.200, 160.000 794.200, 150.000 791.000 C 140.000 787.800, 130.000 787.800, 120.000 791.000 C 110.000 794.200, 100.000 794.200, 90.000 791.000 C 80.000 787.800, 70.000 787.800, 60.000 791.000 C 50.000 794.200, 40.000 794.200, 30.000 791.000 C 20.000 787.800, 10.000 787.800, 0.000 791.000 L 0.000 6.000 Z" fill="#FEEDBF"/>
</svg>